<svg xmlns="http://www.w3.org/2000/svg" xmlns:xlink="http://www.w3.org/1999/xlink" viewBox="0 0 1200 1200"><defs><linearGradient id="linear-gradient" x1="814.2" y1="1919.22" x2="811.74" y2="1909.32" gradientTransform="translate(-108.14 -799.97) scale(0.95)" gradientUnits="userSpaceOnUse"><stop offset="0" stop-color="#782121"/><stop offset="0.71" stop-color="#782121" stop-opacity="0.5"/><stop offset="1" stop-color="#782121" stop-opacity="0"/></linearGradient><linearGradient id="linear-gradient-2" x1="1141.93" y1="1251.93" x2="685.86" y2="1906.74" gradientTransform="translate(-381.37 -802.61) scale(0.95)" gradientUnits="userSpaceOnUse"><stop offset="0" stop-color="#782121"/><stop offset="1" stop-color="#a64949"/><stop offset="1" stop-color="#fff"/></linearGradient></defs><g id="Graphic_Element" data-name="Graphic Element"><g id="layer1"><g id="g3245"><g id="g4170" style="opacity:0.6166999936103821"><path id="path4178" d="M336.14,999.5l-11.77,92.38c-5.63-24.82-9.73-55,5.88-82.14l5.89-10.24Z" style="stroke:#000;stroke-miterlimit:3.6412655533698057;stroke-width:2.441461649297281px;fill-rule:evenodd"/></g><path id="path2168" d="M288.45,1119.9l760.88-189.61L931.32,639,237.22,815S288.18,1119.9,288.45,1119.9Z" style="fill:#782121;stroke:#000;stroke-width:2.558888997962602px;fill-rule:evenodd"/><g id="path2173"><polygon points="1038.33 873.16 1040.48 861.09 1037.79 850.63 1039.94 838.83 302.39 1012.36 302.93 1012.36 290.86 1114.81 1038.06 929.22 1036.18 918.49 1038.06 907.49 1037.26 895.69 1039.67 884.42 1038.33 873.16" style="fill:#ececec;fill-rule:evenodd"/><path d="M289.37,1116.49l12.29-104.28.57.07-.13-1.17,739.45-174-2.45,13.44,2.68,10.46-2.16,12.16,1.35,11.29-2.42,11.29.8,11.78,0,.14-1.84,10.79,2,11.68-1.16.29Zm14.74-103.22-11.76,99.85,744.24-184.86-1.7-9.77,1.88-11.07-.8-11.82,2.41-11.23L1037,873.12l2.13-12-2.69-10.46,1.85-10.16Z"/></g><path id="path2205" d="M300.78,1025.5l-11.53,92.26c-5.63-24.68-9.66-55,5.9-82.07l5.63-10.19Z" style="fill:#1a1a1a;stroke:#000;stroke-width:2.558888997962602px;fill-rule:evenodd"/><g id="path2163"><path d="M309.1,1009.94,167.22,228.14c-21.19,65.44-26.82,89.58-12.34,175.4L286.3,1122.05C286.3,1084.23,277.72,1055.8,309.1,1009.94Z" style="fill:#782121;fill-rule:evenodd"/><path d="M285,1122.32,153.54,403.81c-14.48-86.63-8.58-111.3,12.61-176.2l2.41.8c-20.92,64.37-26.82,88.77-12.34,174.87l128.47,703a24.38,24.38,0,0,0-.27-4.56c-1.07-28.16-2.14-55,23.6-92.53l2.15,1.34c-25.21,36.74-24.41,62-23.33,90.92.26,6.7.53,13.41.53,20.38Z"/></g><path id="path2160" d="M167.76,227.61l139.73,785.82,746.93-178.62L817.33,75,167.76,227.61Z" style="fill:#782121;stroke:#000;stroke-width:2.558888997962602px;fill-rule:evenodd"/><path id="path2170" d="M286,1119.9l.54,5.1,762.49-186.67v-8L286,1119.9Z" style="stroke:#000;stroke-width:2.558888997962602px;fill-rule:evenodd;fill:url(#linear-gradient)"/><path id="path6210" d="M167.76,227.61l139.73,785.82,746.93-178.62L817.33,75,167.76,227.61Z" style="fill:url(#linear-gradient-2)"/><g id="g9157"><g id="path9145"><rect x="320.97" y="948.2" width="700.66" height="2.56" transform="translate(-203.77 183.71) rotate(-13.55)"/></g><g id="path9147"><rect x="344.07" y="992.93" width="428.11" height="2.56" transform="translate(-219.12 160.04) rotate(-13.67)"/></g><g id="path9149"><rect x="828.66" y="912.81" width="85.72" height="2.56" transform="translate(-190.62 230.74) rotate(-13.61)"/></g><g id="path9151"><rect x="876.1" y="914.05" width="144.07" height="2.56" transform="translate(-198.59 265.86) rotate(-14.47)"/></g><g id="path9153"><rect x="366.82" y="1016.42" width="420.43" height="2.56" transform="translate(-237.58 178.01) rotate(-14.58)"/></g><g id="path9155"><rect x="831.01" y="953.96" width="59.88" height="2.56" transform="translate(-193.01 218.43) rotate(-13.01)"/></g></g></g></g></g></svg>